<svg xmlns="http://www.w3.org/2000/svg" class="main-svg" width="1100" height="820" style="" viewBox="0 0 1100 820"><rect x="0" y="0" width="1100" height="820" style="fill: rgb(255, 255, 255); fill-opacity: 1;" /><defs id="plot-0"><g class="clips"><clipPath id="plot-1" class="plotclip"><rect width="912" height="505" /></clipPath><clipPath class="axesclip" id="plot-2"><rect x="148" y="0" width="912" height="820" /></clipPath><clipPath class="axesclip" id="plot-3"><rect x="0" y="215" width="1100" height="505" /></clipPath><clipPath class="axesclip" id="plot-4"><rect x="148" y="215" width="912" height="505" /></clipPath></g><g class="gradients" /><g class="patterns" /></defs><g class="bglayer" /><g class="layer-below"><g class="imagelayer" /><g class="shapelayer" /></g><g class="cartesianlayer"><g class="subplot xy"><g class="layer-subplot"><g class="shapelayer" /><g class="imagelayer" /></g><g class="minor-gridlayer"><g class="x" /><g class="y" /></g><g class="gridlayer"><g class="x"><path class="xgrid crisp" transform="translate(166.17000000000002,0)" d="M0,215v505" style="stroke: rgb(235, 240, 248); stroke-opacity: 1; stroke-width: 1px;" /><path class="xgrid crisp" transform="translate(275.55,0)" d="M0,215v505" style="stroke: rgb(235, 240, 248); stroke-opacity: 1; stroke-width: 1px;" /><path class="xgrid crisp" transform="translate(384.91999999999996,0)" d="M0,215v505" style="stroke: rgb(235, 240, 248); stroke-opacity: 1; stroke-width: 1px;" /><path class="xgrid crisp" transform="translate(494.3,0)" d="M0,215v505" style="stroke: rgb(235, 240, 248); stroke-opacity: 1; stroke-width: 1px;" /><path class="xgrid crisp" transform="translate(603.6800000000001,0)" d="M0,215v505" style="stroke: rgb(235, 240, 248); stroke-opacity: 1; stroke-width: 1px;" /><path class="xgrid crisp" transform="translate(713.06,0)" d="M0,215v505" style="stroke: rgb(235, 240, 248); stroke-opacity: 1; stroke-width: 1px;" /><path class="xgrid crisp" transform="translate(822.44,0)" d="M0,215v505" style="stroke: rgb(235, 240, 248); stroke-opacity: 1; stroke-width: 1px;" /><path class="xgrid crisp" transform="translate(931.81,0)" d="M0,215v505" style="stroke: rgb(235, 240, 248); stroke-opacity: 1; stroke-width: 1px;" /><path class="xgrid crisp" transform="translate(1041.19,0)" d="M0,215v505" style="stroke: rgb(235, 240, 248); stroke-opacity: 1; stroke-width: 1px;" /></g><g class="y"><path class="ygrid crisp" transform="translate(0,635.8299999999999)" d="M148,0h912" style="stroke: rgb(220, 220, 220); stroke-opacity: 1; stroke-width: 1px;" /><path class="ygrid crisp" transform="translate(0,551.6700000000001)" d="M148,0h912" style="stroke: rgb(220, 220, 220); stroke-opacity: 1; stroke-width: 1px;" /><path class="ygrid crisp" transform="translate(0,467.5)" d="M148,0h912" style="stroke: rgb(220, 220, 220); stroke-opacity: 1; stroke-width: 1px;" /><path class="ygrid crisp" transform="translate(0,383.33000000000004)" d="M148,0h912" style="stroke: rgb(220, 220, 220); stroke-opacity: 1; stroke-width: 1px;" /><path class="ygrid crisp" transform="translate(0,299.17)" d="M148,0h912" style="stroke: rgb(220, 220, 220); stroke-opacity: 1; stroke-width: 1px;" /></g></g><g class="zerolinelayer"><path class="yzl zl crisp" transform="translate(0,720)" d="M148,0h912" style="stroke: rgb(235, 240, 248); stroke-opacity: 1; stroke-width: 2px;" /></g><g class="layer-between"><g class="shapelayer" /><g class="imagelayer" /></g><path class="xlines-below" /><path class="ylines-below" /><g class="overlines-below" /><g class="xaxislayer-below" /><g class="yaxislayer-below" /><g class="overaxes-below" /><g class="overplot"><g class="xy" transform="translate(148,215)" clip-path="url(#plot-1)"><g class="scatterlayer mlayer"><g class="trace scatter trace" style="stroke-miterlimit: 2; opacity: 1;"><g class="fills" /><g class="errorbars" /><g class="lines"><path class="js-line" d="M18.17,495.56L127.55,489.62L236.92,480.87L346.3,467.83L455.68,453.22L674.44,417.92L783.81,405.15L893.19,395.89" style="vector-effect: none; fill: none; stroke: rgb(30, 144, 255); stroke-opacity: 1; stroke-width: 5px; opacity: 1;" /></g><g class="points"><path class="point" transform="translate(18.17,495.56)" d="M6.5,0A6.5,6.5 0 1,1 0,-6.5A6.5,6.5 0 0,1 6.5,0Z" style="opacity: 1; stroke-width: 0px; fill: rgb(30, 144, 255); fill-opacity: 1;" /><path class="point" transform="translate(127.55,489.62)" d="M6.5,0A6.5,6.5 0 1,1 0,-6.5A6.5,6.5 0 0,1 6.5,0Z" style="opacity: 1; stroke-width: 0px; fill: rgb(30, 144, 255); fill-opacity: 1;" /><path class="point" transform="translate(236.92,480.87)" d="M6.5,0A6.5,6.5 0 1,1 0,-6.5A6.5,6.5 0 0,1 6.5,0Z" style="opacity: 1; stroke-width: 0px; fill: rgb(30, 144, 255); fill-opacity: 1;" /><path class="point" transform="translate(346.3,467.83)" d="M6.5,0A6.5,6.5 0 1,1 0,-6.5A6.5,6.5 0 0,1 6.5,0Z" style="opacity: 1; stroke-width: 0px; fill: rgb(30, 144, 255); fill-opacity: 1;" /><path class="point" transform="translate(455.68,453.22)" d="M6.5,0A6.5,6.5 0 1,1 0,-6.5A6.5,6.5 0 0,1 6.5,0Z" style="opacity: 1; stroke-width: 0px; fill: rgb(30, 144, 255); fill-opacity: 1;" /><path class="point" transform="translate(565.06,435.04)" d="M6.5,0A6.5,6.5 0 1,1 0,-6.5A6.5,6.5 0 0,1 6.5,0Z" style="opacity: 1; stroke-width: 0px; fill: rgb(30, 144, 255); fill-opacity: 1;" /><path class="point" transform="translate(674.44,417.92)" d="M6.5,0A6.5,6.5 0 1,1 0,-6.5A6.5,6.5 0 0,1 6.5,0Z" style="opacity: 1; stroke-width: 0px; fill: rgb(30, 144, 255); fill-opacity: 1;" /><path class="point" transform="translate(783.81,405.15)" d="M6.5,0A6.5,6.5 0 1,1 0,-6.5A6.5,6.5 0 0,1 6.5,0Z" style="opacity: 1; stroke-width: 0px; fill: rgb(30, 144, 255); fill-opacity: 1;" /><path class="point" transform="translate(893.19,395.89)" d="M6.5,0A6.5,6.5 0 1,1 0,-6.5A6.5,6.5 0 0,1 6.5,0Z" style="opacity: 1; stroke-width: 0px; fill: rgb(30, 144, 255); fill-opacity: 1;" /></g><g class="text" /></g><g class="trace scatter trace" style="stroke-miterlimit: 2; opacity: 1;"><g class="fills" /><g class="errorbars" /><g class="lines"><path class="js-line" d="M18.17,495.01L127.55,487.69L236.92,476.08L346.3,457.94L455.68,435.67L565.06,402.36L674.44,364.75L783.81,329.73L893.19,297.06" style="vector-effect: none; fill: none; stroke: rgb(50, 205, 50); stroke-opacity: 1; stroke-width: 5px; opacity: 1;" /></g><g class="points"><path class="point" transform="translate(18.17,495.01)" d="M6.5,0A6.5,6.5 0 1,1 0,-6.5A6.5,6.5 0 0,1 6.5,0Z" style="opacity: 1; stroke-width: 0px; fill: rgb(50, 205, 50); fill-opacity: 1;" /><path class="point" transform="translate(127.55,487.69)" d="M6.5,0A6.5,6.5 0 1,1 0,-6.5A6.5,6.5 0 0,1 6.5,0Z" style="opacity: 1; stroke-width: 0px; fill: rgb(50, 205, 50); fill-opacity: 1;" /><path class="point" transform="translate(236.92,476.08)" d="M6.5,0A6.5,6.5 0 1,1 0,-6.5A6.5,6.5 0 0,1 6.5,0Z" style="opacity: 1; stroke-width: 0px; fill: rgb(50, 205, 50); fill-opacity: 1;" /><path class="point" transform="translate(346.3,457.94)" d="M6.5,0A6.5,6.5 0 1,1 0,-6.5A6.5,6.5 0 0,1 6.5,0Z" style="opacity: 1; stroke-width: 0px; fill: rgb(50, 205, 50); fill-opacity: 1;" /><path class="point" transform="translate(455.68,435.67)" d="M6.5,0A6.5,6.5 0 1,1 0,-6.5A6.5,6.5 0 0,1 6.5,0Z" style="opacity: 1; stroke-width: 0px; fill: rgb(50, 205, 50); fill-opacity: 1;" /><path class="point" transform="translate(565.06,402.36)" d="M6.5,0A6.5,6.5 0 1,1 0,-6.5A6.5,6.5 0 0,1 6.5,0Z" style="opacity: 1; stroke-width: 0px; fill: rgb(50, 205, 50); fill-opacity: 1;" /><path class="point" transform="translate(674.44,364.75)" d="M6.5,0A6.5,6.5 0 1,1 0,-6.5A6.5,6.5 0 0,1 6.5,0Z" style="opacity: 1; stroke-width: 0px; fill: rgb(50, 205, 50); fill-opacity: 1;" /><path class="point" transform="translate(783.81,329.73)" d="M6.5,0A6.5,6.5 0 1,1 0,-6.5A6.5,6.5 0 0,1 6.5,0Z" style="opacity: 1; stroke-width: 0px; fill: rgb(50, 205, 50); fill-opacity: 1;" /><path class="point" transform="translate(893.19,297.06)" d="M6.5,0A6.5,6.5 0 1,1 0,-6.5A6.5,6.5 0 0,1 6.5,0Z" style="opacity: 1; stroke-width: 0px; fill: rgb(50, 205, 50); fill-opacity: 1;" /></g><g class="text" /></g><g class="trace scatter trace" style="stroke-miterlimit: 2; opacity: 1;"><g class="fills" /><g class="errorbars" /><g class="lines"><path class="js-line" d="M18.17,489.89L127.55,479.83L236.92,462.11L346.3,436.09L455.68,402.74L565.06,353.15L674.44,295.59L783.81,239.46L893.19,178.46" style="vector-effect: none; fill: none; stroke: rgb(255, 0, 0); stroke-opacity: 1; stroke-width: 5px; opacity: 1;" /></g><g class="points"><path class="point" transform="translate(18.17,489.89)" d="M6.5,0A6.5,6.5 0 1,1 0,-6.5A6.5,6.5 0 0,1 6.5,0Z" style="opacity: 1; stroke-width: 0px; fill: rgb(255, 0, 0); fill-opacity: 1;" /><path class="point" transform="translate(127.55,479.83)" d="M6.5,0A6.5,6.5 0 1,1 0,-6.5A6.5,6.5 0 0,1 6.5,0Z" style="opacity: 1; stroke-width: 0px; fill: rgb(255, 0, 0); fill-opacity: 1;" /><path class="point" transform="translate(236.92,462.11)" d="M6.5,0A6.5,6.5 0 1,1 0,-6.5A6.5,6.5 0 0,1 6.5,0Z" style="opacity: 1; stroke-width: 0px; fill: rgb(255, 0, 0); fill-opacity: 1;" /><path class="point" transform="translate(346.3,436.09)" d="M6.5,0A6.5,6.5 0 1,1 0,-6.5A6.5,6.5 0 0,1 6.5,0Z" style="opacity: 1; stroke-width: 0px; fill: rgb(255, 0, 0); fill-opacity: 1;" /><path class="point" transform="translate(455.68,402.74)" d="M6.5,0A6.5,6.5 0 1,1 0,-6.5A6.5,6.5 0 0,1 6.5,0Z" style="opacity: 1; stroke-width: 0px; fill: rgb(255, 0, 0); fill-opacity: 1;" /><path class="point" transform="translate(565.06,353.15)" d="M6.5,0A6.5,6.5 0 1,1 0,-6.5A6.5,6.5 0 0,1 6.5,0Z" style="opacity: 1; stroke-width: 0px; fill: rgb(255, 0, 0); fill-opacity: 1;" /><path class="point" transform="translate(674.44,295.59)" d="M6.5,0A6.5,6.5 0 1,1 0,-6.5A6.5,6.5 0 0,1 6.5,0Z" style="opacity: 1; stroke-width: 0px; fill: rgb(255, 0, 0); fill-opacity: 1;" /><path class="point" transform="translate(783.81,239.46)" d="M6.5,0A6.5,6.5 0 1,1 0,-6.5A6.5,6.5 0 0,1 6.5,0Z" style="opacity: 1; stroke-width: 0px; fill: rgb(255, 0, 0); fill-opacity: 1;" /><path class="point" transform="translate(893.19,178.46)" d="M6.5,0A6.5,6.5 0 1,1 0,-6.5A6.5,6.5 0 0,1 6.5,0Z" style="opacity: 1; stroke-width: 0px; fill: rgb(255, 0, 0); fill-opacity: 1;" /></g><g class="text" /></g><g class="trace scatter trace" style="stroke-miterlimit: 2; opacity: 1;"><g class="fills" /><g class="errorbars" /><g class="lines"><path class="js-line" d="M18.17,495.44L127.55,489.71L236.92,480.96L346.3,468.43L455.68,454.64L565.06,435.62L674.44,419.1L893.19,397.62" style="vector-effect: none; fill: none; stroke: rgb(30, 144, 255); stroke-opacity: 1; stroke-dasharray: 15px, 15px; stroke-width: 5px; opacity: 1;" /></g><g class="points"><path class="point" transform="translate(18.17,495.44)" d="M6.5,0A6.5,6.5 0 1,1 0,-6.5A6.5,6.5 0 0,1 6.5,0Z" style="opacity: 1; stroke-width: 0px; fill: rgb(30, 144, 255); fill-opacity: 1;" /><path class="point" transform="translate(127.55,489.71)" d="M6.5,0A6.5,6.5 0 1,1 0,-6.5A6.5,6.5 0 0,1 6.5,0Z" style="opacity: 1; stroke-width: 0px; fill: rgb(30, 144, 255); fill-opacity: 1;" /><path class="point" transform="translate(236.92,480.96)" d="M6.5,0A6.5,6.5 0 1,1 0,-6.5A6.5,6.5 0 0,1 6.5,0Z" style="opacity: 1; stroke-width: 0px; fill: rgb(30, 144, 255); fill-opacity: 1;" /><path class="point" transform="translate(346.3,468.43)" d="M6.5,0A6.5,6.5 0 1,1 0,-6.5A6.5,6.5 0 0,1 6.5,0Z" style="opacity: 1; stroke-width: 0px; fill: rgb(30, 144, 255); fill-opacity: 1;" /><path class="point" transform="translate(455.68,454.64)" d="M6.5,0A6.5,6.5 0 1,1 0,-6.5A6.5,6.5 0 0,1 6.5,0Z" style="opacity: 1; stroke-width: 0px; fill: rgb(30, 144, 255); fill-opacity: 1;" /><path class="point" transform="translate(565.06,435.62)" d="M6.5,0A6.5,6.5 0 1,1 0,-6.5A6.5,6.5 0 0,1 6.5,0Z" style="opacity: 1; stroke-width: 0px; fill: rgb(30, 144, 255); fill-opacity: 1;" /><path class="point" transform="translate(674.44,419.1)" d="M6.5,0A6.5,6.5 0 1,1 0,-6.5A6.5,6.5 0 0,1 6.5,0Z" style="opacity: 1; stroke-width: 0px; fill: rgb(30, 144, 255); fill-opacity: 1;" /><path class="point" transform="translate(783.81,408.06)" d="M6.5,0A6.5,6.5 0 1,1 0,-6.5A6.5,6.5 0 0,1 6.5,0Z" style="opacity: 1; stroke-width: 0px; fill: rgb(30, 144, 255); fill-opacity: 1;" /><path class="point" transform="translate(893.19,397.62)" d="M6.5,0A6.5,6.5 0 1,1 0,-6.5A6.5,6.5 0 0,1 6.5,0Z" style="opacity: 1; stroke-width: 0px; fill: rgb(30, 144, 255); fill-opacity: 1;" /></g><g class="text" /></g><g class="trace scatter trace" style="stroke-miterlimit: 2; opacity: 1;"><g class="fills" /><g class="errorbars" /><g class="lines"><path class="js-line" d="M18.17,495.05L127.55,488.14L236.92,476.61L346.3,460.08L455.68,437.27L565.06,403.94L674.44,369.23L783.81,330.71L893.19,296.3" style="vector-effect: none; fill: none; stroke: rgb(50, 205, 50); stroke-opacity: 1; stroke-dasharray: 15px, 15px; stroke-width: 5px; opacity: 1;" /></g><g class="points"><path class="point" transform="translate(18.17,495.05)" d="M6.5,0A6.5,6.5 0 1,1 0,-6.5A6.5,6.5 0 0,1 6.5,0Z" style="opacity: 1; stroke-width: 0px; fill: rgb(50, 205, 50); fill-opacity: 1;" /><path class="point" transform="translate(127.55,488.14)" d="M6.5,0A6.5,6.5 0 1,1 0,-6.5A6.5,6.5 0 0,1 6.5,0Z" style="opacity: 1; stroke-width: 0px; fill: rgb(50, 205, 50); fill-opacity: 1;" /><path class="point" transform="translate(236.92,476.61)" d="M6.5,0A6.5,6.5 0 1,1 0,-6.5A6.5,6.5 0 0,1 6.5,0Z" style="opacity: 1; stroke-width: 0px; fill: rgb(50, 205, 50); fill-opacity: 1;" /><path class="point" transform="translate(346.3,460.08)" d="M6.5,0A6.5,6.5 0 1,1 0,-6.5A6.5,6.5 0 0,1 6.5,0Z" style="opacity: 1; stroke-width: 0px; fill: rgb(50, 205, 50); fill-opacity: 1;" /><path class="point" transform="translate(455.68,437.27)" d="M6.5,0A6.5,6.5 0 1,1 0,-6.5A6.5,6.5 0 0,1 6.5,0Z" style="opacity: 1; stroke-width: 0px; fill: rgb(50, 205, 50); fill-opacity: 1;" /><path class="point" transform="translate(565.06,403.94)" d="M6.5,0A6.5,6.5 0 1,1 0,-6.5A6.5,6.5 0 0,1 6.5,0Z" style="opacity: 1; stroke-width: 0px; fill: rgb(50, 205, 50); fill-opacity: 1;" /><path class="point" transform="translate(674.44,369.23)" d="M6.5,0A6.5,6.5 0 1,1 0,-6.5A6.5,6.5 0 0,1 6.5,0Z" style="opacity: 1; stroke-width: 0px; fill: rgb(50, 205, 50); fill-opacity: 1;" /><path class="point" transform="translate(783.81,330.71)" d="M6.5,0A6.5,6.5 0 1,1 0,-6.5A6.5,6.5 0 0,1 6.5,0Z" style="opacity: 1; stroke-width: 0px; fill: rgb(50, 205, 50); fill-opacity: 1;" /><path class="point" transform="translate(893.19,296.3)" d="M6.5,0A6.5,6.5 0 1,1 0,-6.5A6.5,6.5 0 0,1 6.5,0Z" style="opacity: 1; stroke-width: 0px; fill: rgb(50, 205, 50); fill-opacity: 1;" /></g><g class="text" /></g><g class="trace scatter trace" style="stroke-miterlimit: 2; opacity: 1;"><g class="fills" /><g class="errorbars" /><g class="lines"><path class="js-line" d="M18.17,489.66L127.55,479.31L236.92,462.67L346.3,436.83L455.68,402.47L565.06,351.82L674.44,295.9L783.81,240.04L893.19,175.4" style="vector-effect: none; fill: none; stroke: rgb(255, 0, 0); stroke-opacity: 1; stroke-dasharray: 15px, 15px; stroke-width: 5px; opacity: 1;" /></g><g class="points"><path class="point" transform="translate(18.17,489.66)" d="M6.5,0A6.5,6.5 0 1,1 0,-6.5A6.5,6.5 0 0,1 6.5,0Z" style="opacity: 1; stroke-width: 0px; fill: rgb(255, 0, 0); fill-opacity: 1;" /><path class="point" transform="translate(127.55,479.31)" d="M6.5,0A6.5,6.5 0 1,1 0,-6.5A6.5,6.5 0 0,1 6.5,0Z" style="opacity: 1; stroke-width: 0px; fill: rgb(255, 0, 0); fill-opacity: 1;" /><path class="point" transform="translate(236.92,462.67)" d="M6.5,0A6.5,6.5 0 1,1 0,-6.5A6.5,6.5 0 0,1 6.5,0Z" style="opacity: 1; stroke-width: 0px; fill: rgb(255, 0, 0); fill-opacity: 1;" /><path class="point" transform="translate(346.3,436.83)" d="M6.5,0A6.5,6.5 0 1,1 0,-6.5A6.5,6.5 0 0,1 6.5,0Z" style="opacity: 1; stroke-width: 0px; fill: rgb(255, 0, 0); fill-opacity: 1;" /><path class="point" transform="translate(455.68,402.47)" d="M6.5,0A6.5,6.5 0 1,1 0,-6.5A6.5,6.5 0 0,1 6.5,0Z" style="opacity: 1; stroke-width: 0px; fill: rgb(255, 0, 0); fill-opacity: 1;" /><path class="point" transform="translate(565.06,351.82)" d="M6.5,0A6.5,6.5 0 1,1 0,-6.5A6.5,6.5 0 0,1 6.5,0Z" style="opacity: 1; stroke-width: 0px; fill: rgb(255, 0, 0); fill-opacity: 1;" /><path class="point" transform="translate(674.44,295.9)" d="M6.5,0A6.5,6.5 0 1,1 0,-6.5A6.5,6.5 0 0,1 6.5,0Z" style="opacity: 1; stroke-width: 0px; fill: rgb(255, 0, 0); fill-opacity: 1;" /><path class="point" transform="translate(783.81,240.04)" d="M6.5,0A6.5,6.5 0 1,1 0,-6.5A6.5,6.5 0 0,1 6.5,0Z" style="opacity: 1; stroke-width: 0px; fill: rgb(255, 0, 0); fill-opacity: 1;" /><path class="point" transform="translate(893.19,175.4)" d="M6.5,0A6.5,6.5 0 1,1 0,-6.5A6.5,6.5 0 0,1 6.5,0Z" style="opacity: 1; stroke-width: 0px; fill: rgb(255, 0, 0); fill-opacity: 1;" /></g><g class="text" /></g><g class="trace scatter trace" style="stroke-miterlimit: 2; opacity: 1;"><g class="fills" /><g class="errorbars" /><g class="lines"><path class="js-line" d="M18.17,497.83L127.55,493.75L236.92,487.51L346.3,480.19L455.68,470.63L565.06,461.05L674.44,453.4L783.81,445.39" style="vector-effect: none; fill: none; stroke: rgb(30, 144, 255); stroke-opacity: 1; stroke-dasharray: 5px, 5px; stroke-width: 5px; opacity: 1;" /></g><g class="points"><path class="point" transform="translate(18.17,497.83)" d="M6.5,0A6.5,6.5 0 1,1 0,-6.5A6.5,6.5 0 0,1 6.5,0Z" style="opacity: 1; stroke-width: 0px; fill: rgb(30, 144, 255); fill-opacity: 1;" /><path class="point" transform="translate(127.55,493.75)" d="M6.5,0A6.5,6.5 0 1,1 0,-6.5A6.5,6.5 0 0,1 6.5,0Z" style="opacity: 1; stroke-width: 0px; fill: rgb(30, 144, 255); fill-opacity: 1;" /><path class="point" transform="translate(236.92,487.51)" d="M6.5,0A6.5,6.5 0 1,1 0,-6.5A6.5,6.5 0 0,1 6.5,0Z" style="opacity: 1; stroke-width: 0px; fill: rgb(30, 144, 255); fill-opacity: 1;" /><path class="point" transform="translate(346.3,480.19)" d="M6.5,0A6.5,6.5 0 1,1 0,-6.5A6.5,6.5 0 0,1 6.5,0Z" style="opacity: 1; stroke-width: 0px; fill: rgb(30, 144, 255); fill-opacity: 1;" /><path class="point" transform="translate(455.68,470.63)" d="M6.5,0A6.5,6.5 0 1,1 0,-6.5A6.5,6.5 0 0,1 6.5,0Z" style="opacity: 1; stroke-width: 0px; fill: rgb(30, 144, 255); fill-opacity: 1;" /><path class="point" transform="translate(565.06,461.05)" d="M6.5,0A6.5,6.5 0 1,1 0,-6.5A6.5,6.5 0 0,1 6.5,0Z" style="opacity: 1; stroke-width: 0px; fill: rgb(30, 144, 255); fill-opacity: 1;" /><path class="point" transform="translate(674.44,453.4)" d="M6.5,0A6.5,6.5 0 1,1 0,-6.5A6.5,6.5 0 0,1 6.5,0Z" style="opacity: 1; stroke-width: 0px; fill: rgb(30, 144, 255); fill-opacity: 1;" /><path class="point" transform="translate(783.81,445.39)" d="M6.5,0A6.5,6.5 0 1,1 0,-6.5A6.5,6.5 0 0,1 6.5,0Z" style="opacity: 1; stroke-width: 0px; fill: rgb(30, 144, 255); fill-opacity: 1;" /></g><g class="text" /></g><g class="trace scatter trace" style="stroke-miterlimit: 2; opacity: 1;"><g class="fills" /><g class="errorbars" /><g class="lines"><path class="js-line" d="M18.17,496.46L127.55,491.55L236.92,480.83L346.3,466.53L455.68,449.57L565.06,427.56L674.44,409.39L783.81,380.91" style="vector-effect: none; fill: none; stroke: rgb(50, 205, 50); stroke-opacity: 1; stroke-dasharray: 5px, 5px; stroke-width: 5px; opacity: 1;" /></g><g class="points"><path class="point" transform="translate(18.17,496.46)" d="M6.5,0A6.5,6.5 0 1,1 0,-6.5A6.5,6.5 0 0,1 6.5,0Z" style="opacity: 1; stroke-width: 0px; fill: rgb(50, 205, 50); fill-opacity: 1;" /><path class="point" transform="translate(127.55,491.55)" d="M6.5,0A6.5,6.5 0 1,1 0,-6.5A6.5,6.5 0 0,1 6.5,0Z" style="opacity: 1; stroke-width: 0px; fill: rgb(50, 205, 50); fill-opacity: 1;" /><path class="point" transform="translate(236.92,480.83)" d="M6.5,0A6.5,6.5 0 1,1 0,-6.5A6.5,6.5 0 0,1 6.5,0Z" style="opacity: 1; stroke-width: 0px; fill: rgb(50, 205, 50); fill-opacity: 1;" /><path class="point" transform="translate(346.3,466.53)" d="M6.5,0A6.5,6.5 0 1,1 0,-6.5A6.5,6.5 0 0,1 6.5,0Z" style="opacity: 1; stroke-width: 0px; fill: rgb(50, 205, 50); fill-opacity: 1;" /><path class="point" transform="translate(455.68,449.57)" d="M6.5,0A6.5,6.5 0 1,1 0,-6.5A6.5,6.5 0 0,1 6.5,0Z" style="opacity: 1; stroke-width: 0px; fill: rgb(50, 205, 50); fill-opacity: 1;" /><path class="point" transform="translate(565.06,427.56)" d="M6.5,0A6.5,6.5 0 1,1 0,-6.5A6.5,6.5 0 0,1 6.5,0Z" style="opacity: 1; stroke-width: 0px; fill: rgb(50, 205, 50); fill-opacity: 1;" /><path class="point" transform="translate(674.44,409.39)" d="M6.5,0A6.5,6.5 0 1,1 0,-6.5A6.5,6.5 0 0,1 6.5,0Z" style="opacity: 1; stroke-width: 0px; fill: rgb(50, 205, 50); fill-opacity: 1;" /><path class="point" transform="translate(783.81,380.91)" d="M6.5,0A6.5,6.5 0 1,1 0,-6.5A6.5,6.5 0 0,1 6.5,0Z" style="opacity: 1; stroke-width: 0px; fill: rgb(50, 205, 50); fill-opacity: 1;" /></g><g class="text" /></g><g class="trace scatter trace" style="stroke-miterlimit: 2; opacity: 1;"><g class="fills" /><g class="errorbars" /><g class="lines"><path class="js-line" d="M18.17,492.86L127.55,483.36L236.92,468.61L346.3,447.61L455.68,418.5L565.06,384.59L674.44,363.68L783.81,337.49" style="vector-effect: none; fill: none; stroke: rgb(255, 0, 0); stroke-opacity: 1; stroke-dasharray: 5px, 5px; stroke-width: 5px; opacity: 1;" /></g><g class="points"><path class="point" transform="translate(18.17,492.86)" d="M6.5,0A6.5,6.5 0 1,1 0,-6.5A6.5,6.5 0 0,1 6.5,0Z" style="opacity: 1; stroke-width: 0px; fill: rgb(255, 0, 0); fill-opacity: 1;" /><path class="point" transform="translate(127.55,483.36)" d="M6.5,0A6.5,6.5 0 1,1 0,-6.5A6.5,6.5 0 0,1 6.5,0Z" style="opacity: 1; stroke-width: 0px; fill: rgb(255, 0, 0); fill-opacity: 1;" /><path class="point" transform="translate(236.92,468.61)" d="M6.5,0A6.5,6.5 0 1,1 0,-6.5A6.5,6.5 0 0,1 6.5,0Z" style="opacity: 1; stroke-width: 0px; fill: rgb(255, 0, 0); fill-opacity: 1;" /><path class="point" transform="translate(346.3,447.61)" d="M6.5,0A6.5,6.5 0 1,1 0,-6.5A6.5,6.5 0 0,1 6.5,0Z" style="opacity: 1; stroke-width: 0px; fill: rgb(255, 0, 0); fill-opacity: 1;" /><path class="point" transform="translate(455.68,418.5)" d="M6.5,0A6.5,6.5 0 1,1 0,-6.5A6.5,6.5 0 0,1 6.5,0Z" style="opacity: 1; stroke-width: 0px; fill: rgb(255, 0, 0); fill-opacity: 1;" /><path class="point" transform="translate(565.06,384.59)" d="M6.5,0A6.5,6.5 0 1,1 0,-6.5A6.5,6.5 0 0,1 6.5,0Z" style="opacity: 1; stroke-width: 0px; fill: rgb(255, 0, 0); fill-opacity: 1;" /><path class="point" transform="translate(674.44,363.68)" d="M6.5,0A6.5,6.5 0 1,1 0,-6.5A6.5,6.5 0 0,1 6.5,0Z" style="opacity: 1; stroke-width: 0px; fill: rgb(255, 0, 0); fill-opacity: 1;" /><path class="point" transform="translate(783.81,337.49)" d="M6.5,0A6.5,6.5 0 1,1 0,-6.5A6.5,6.5 0 0,1 6.5,0Z" style="opacity: 1; stroke-width: 0px; fill: rgb(255, 0, 0); fill-opacity: 1;" /></g><g class="text" /></g></g></g></g><g class="zerolinelayer-above" /><path class="xlines-above crisp" d="M0,0" style="fill: none;" /><path class="ylines-above crisp" d="M0,0" style="fill: none;" /><g class="overlines-above" /><g class="xaxislayer-above"><g class="xtick"><text text-anchor="middle" x="0" y="753" transform="translate(166.17000000000002,0)" style="font-family: Arial; font-size: 32px; fill: rgb(42, 63, 95); fill-opacity: 1; font-weight: 700; white-space: pre;">1</text></g><g class="xtick"><text text-anchor="middle" x="0" y="753" style="font-family: Arial; font-size: 32px; fill: rgb(42, 63, 95); fill-opacity: 1; font-weight: 700; white-space: pre;" transform="translate(275.55,0)">2</text></g><g class="xtick"><text text-anchor="middle" x="0" y="753" style="font-family: Arial; font-size: 32px; fill: rgb(42, 63, 95); fill-opacity: 1; font-weight: 700; white-space: pre;" transform="translate(384.91999999999996,0)">4</text></g><g class="xtick"><text text-anchor="middle" x="0" y="753" style="font-family: Arial; font-size: 32px; fill: rgb(42, 63, 95); fill-opacity: 1; font-weight: 700; white-space: pre;" transform="translate(494.3,0)">8</text></g><g class="xtick"><text text-anchor="middle" x="0" y="753" style="font-family: Arial; font-size: 32px; fill: rgb(42, 63, 95); fill-opacity: 1; font-weight: 700; white-space: pre;" transform="translate(603.6800000000001,0)">16</text></g><g class="xtick"><text text-anchor="middle" x="0" y="753" style="font-family: Arial; font-size: 32px; fill: rgb(42, 63, 95); fill-opacity: 1; font-weight: 700; white-space: pre;" transform="translate(713.06,0)">32</text></g><g class="xtick"><text text-anchor="middle" x="0" y="753" style="font-family: Arial; font-size: 32px; fill: rgb(42, 63, 95); fill-opacity: 1; font-weight: 700; white-space: pre;" transform="translate(822.44,0)">64</text></g><g class="xtick"><text text-anchor="middle" x="0" y="753" style="font-family: Arial; font-size: 32px; fill: rgb(42, 63, 95); fill-opacity: 1; font-weight: 700; white-space: pre;" transform="translate(931.81,0)">128</text></g><g class="xtick"><text text-anchor="middle" x="0" y="753" style="font-family: Arial; font-size: 32px; fill: rgb(42, 63, 95); fill-opacity: 1; font-weight: 700; white-space: pre;" transform="translate(1041.19,0)">256</text></g></g><g class="yaxislayer-above"><g class="ytick"><text text-anchor="end" x="147" y="11.2" transform="translate(0,720)" style="font-family: Arial; font-size: 32px; fill: rgb(42, 63, 95); fill-opacity: 1; font-weight: 700; white-space: pre;">0</text></g><g class="ytick"><text text-anchor="end" x="147" y="11.2" style="font-family: Arial; font-size: 32px; fill: rgb(42, 63, 95); fill-opacity: 1; font-weight: 700; white-space: pre;" transform="translate(0,635.8299999999999)">5,000</text></g><g class="ytick"><text text-anchor="end" x="147" y="11.2" style="font-family: Arial; font-size: 32px; fill: rgb(42, 63, 95); fill-opacity: 1; font-weight: 700; white-space: pre;" transform="translate(0,551.6700000000001)">10,000</text></g><g class="ytick"><text text-anchor="end" x="147" y="11.2" style="font-family: Arial; font-size: 32px; fill: rgb(42, 63, 95); fill-opacity: 1; font-weight: 700; white-space: pre;" transform="translate(0,467.5)">15,000</text></g><g class="ytick"><text text-anchor="end" x="147" y="11.2" style="font-family: Arial; font-size: 32px; fill: rgb(42, 63, 95); fill-opacity: 1; font-weight: 700; white-space: pre;" transform="translate(0,383.33000000000004)">20,000</text></g><g class="ytick"><text text-anchor="end" x="147" y="11.2" style="font-family: Arial; font-size: 32px; fill: rgb(42, 63, 95); fill-opacity: 1; font-weight: 700; white-space: pre;" transform="translate(0,299.17)">25,000</text></g><g class="ytick"><text text-anchor="end" x="147" y="11.2" style="font-family: Arial; font-size: 32px; fill: rgb(42, 63, 95); fill-opacity: 1; font-weight: 700; white-space: pre;" transform="translate(0,215)">30,000</text></g></g><g class="overaxes-above" /></g></g><g class="polarlayer" /><g class="smithlayer" /><g class="ternarylayer" /><g class="geolayer" /><g class="funnelarealayer" /><g class="pielayer" /><g class="iciclelayer" /><g class="treemaplayer" /><g class="sunburstlayer" /><g class="glimages" /><defs id="plot-5"><g class="clips" /><clipPath id="plot-6"><rect width="915" height="152" x="0" y="0" /></clipPath></defs><g class="layer-above"><g class="imagelayer" /><g class="shapelayer" /></g><g class="infolayer"><g class="legend" pointer-events="all" transform="translate(146.5,23.10000000000005)"><rect class="bg" shape-rendering="crispEdges" style="stroke: rgb(68, 68, 68); stroke-opacity: 1; fill: rgb(255, 255, 255); fill-opacity: 1; stroke-width: 0px;" width="915" height="152" x="0" y="0" /><g class="scrollbox" transform="" clip-path="url(#plot-6)"><g class="groups"><g class="traces" transform="translate(0,28.6)" style="opacity: 1;"><text class="legendtext" text-anchor="start" x="70" y="13.26" style="font-family: Arial; font-size: 34px; fill: rgb(42, 63, 95); fill-opacity: 1; font-weight: 700; white-space: pre;">A100 FP16</text><g class="layers" style="opacity: 1;"><g class="legendfill" /><g class="legendlines"><path class="js-line" d="M5,0h60" style="fill: none; stroke: rgb(30, 144, 255); stroke-opacity: 1; stroke-width: 5px;" /></g><g class="legendsymbols"><g class="legendpoints"><path class="scatterpts" transform="translate(35,0)" d="M6.5,0A6.5,6.5 0 1,1 0,-6.5A6.5,6.5 0 0,1 6.5,0Z" style="opacity: 1; stroke-width: 0px; fill: rgb(30, 144, 255); fill-opacity: 1;" /></g></g></g><rect class="legendtoggle" x="0" y="-23.6" width="302.5" height="47.2" style="fill: rgb(0, 0, 0); fill-opacity: 0;" /></g><g class="traces" transform="translate(305,28.6)" style="opacity: 1;"><text class="legendtext" text-anchor="start" x="70" y="13.26" style="font-family: Arial; font-size: 34px; fill: rgb(42, 63, 95); fill-opacity: 1; font-weight: 700; white-space: pre;">H200 FP16</text><g class="layers" style="opacity: 1;"><g class="legendfill" /><g class="legendlines"><path class="js-line" d="M5,0h60" style="fill: none; stroke: rgb(50, 205, 50); stroke-opacity: 1; stroke-width: 5px;" /></g><g class="legendsymbols"><g class="legendpoints"><path class="scatterpts" transform="translate(35,0)" d="M6.5,0A6.5,6.5 0 1,1 0,-6.5A6.5,6.5 0 0,1 6.5,0Z" style="opacity: 1; stroke-width: 0px; fill: rgb(50, 205, 50); fill-opacity: 1;" /></g></g></g><rect class="legendtoggle" x="0" y="-23.6" width="302.5" height="47.2" style="fill: rgb(0, 0, 0); fill-opacity: 0;" /></g><g class="traces" transform="translate(610,28.6)" style="opacity: 1;"><text class="legendtext" text-anchor="start" x="70" y="13.26" style="font-family: Arial; font-size: 34px; fill: rgb(42, 63, 95); fill-opacity: 1; font-weight: 700; white-space: pre;">B300 FP16</text><g class="layers" style="opacity: 1;"><g class="legendfill" /><g class="legendlines"><path class="js-line" d="M5,0h60" style="fill: none; stroke: rgb(255, 0, 0); stroke-opacity: 1; stroke-width: 5px;" /></g><g class="legendsymbols"><g class="legendpoints"><path class="scatterpts" transform="translate(35,0)" d="M6.5,0A6.5,6.5 0 1,1 0,-6.5A6.5,6.5 0 0,1 6.5,0Z" style="opacity: 1; stroke-width: 0px; fill: rgb(255, 0, 0); fill-opacity: 1;" /></g></g></g><rect class="legendtoggle" x="0" y="-23.6" width="302.5" height="47.2" style="fill: rgb(0, 0, 0); fill-opacity: 0;" /></g><g class="traces" transform="translate(0,75.80000000000001)" style="opacity: 1;"><text class="legendtext" text-anchor="start" x="70" y="13.26" style="font-family: Arial; font-size: 34px; fill: rgb(42, 63, 95); fill-opacity: 1; font-weight: 700; white-space: pre;">A100 BF16</text><g class="layers" style="opacity: 1;"><g class="legendfill" /><g class="legendlines"><path class="js-line" d="M5,0h60" style="fill: none; stroke: rgb(30, 144, 255); stroke-opacity: 1; stroke-dasharray: 15px, 15px; stroke-width: 5px;" /></g><g class="legendsymbols"><g class="legendpoints"><path class="scatterpts" transform="translate(35,0)" d="M6.5,0A6.5,6.5 0 1,1 0,-6.5A6.5,6.5 0 0,1 6.5,0Z" style="opacity: 1; stroke-width: 0px; fill: rgb(30, 144, 255); fill-opacity: 1;" /></g></g></g><rect class="legendtoggle" x="0" y="-23.6" width="302.5" height="47.2" style="fill: rgb(0, 0, 0); fill-opacity: 0;" /></g><g class="traces" transform="translate(305,75.80000000000001)" style="opacity: 1;"><text class="legendtext" text-anchor="start" x="70" y="13.26" style="font-family: Arial; font-size: 34px; fill: rgb(42, 63, 95); fill-opacity: 1; font-weight: 700; white-space: pre;">H200 BF16</text><g class="layers" style="opacity: 1;"><g class="legendfill" /><g class="legendlines"><path class="js-line" d="M5,0h60" style="fill: none; stroke: rgb(50, 205, 50); stroke-opacity: 1; stroke-dasharray: 15px, 15px; stroke-width: 5px;" /></g><g class="legendsymbols"><g class="legendpoints"><path class="scatterpts" transform="translate(35,0)" d="M6.5,0A6.5,6.5 0 1,1 0,-6.5A6.5,6.5 0 0,1 6.5,0Z" style="opacity: 1; stroke-width: 0px; fill: rgb(50, 205, 50); fill-opacity: 1;" /></g></g></g><rect class="legendtoggle" x="0" y="-23.6" width="302.5" height="47.2" style="fill: rgb(0, 0, 0); fill-opacity: 0;" /></g><g class="traces" transform="translate(610,75.80000000000001)" style="opacity: 1;"><text class="legendtext" text-anchor="start" x="70" y="13.26" style="font-family: Arial; font-size: 34px; fill: rgb(42, 63, 95); fill-opacity: 1; font-weight: 700; white-space: pre;">B300 BF16</text><g class="layers" style="opacity: 1;"><g class="legendfill" /><g class="legendlines"><path class="js-line" d="M5,0h60" style="fill: none; stroke: rgb(255, 0, 0); stroke-opacity: 1; stroke-dasharray: 15px, 15px; stroke-width: 5px;" /></g><g class="legendsymbols"><g class="legendpoints"><path class="scatterpts" transform="translate(35,0)" d="M6.5,0A6.5,6.5 0 1,1 0,-6.5A6.5,6.5 0 0,1 6.5,0Z" style="opacity: 1; stroke-width: 0px; fill: rgb(255, 0, 0); fill-opacity: 1;" /></g></g></g><rect class="legendtoggle" x="0" y="-23.6" width="302.5" height="47.2" style="fill: rgb(0, 0, 0); fill-opacity: 0;" /></g><g class="traces" transform="translate(0,123)" style="opacity: 1;"><text class="legendtext" text-anchor="start" x="70" y="13.26" style="font-family: Arial; font-size: 34px; fill: rgb(42, 63, 95); fill-opacity: 1; font-weight: 700; white-space: pre;">A100 FP32</text><g class="layers" style="opacity: 1;"><g class="legendfill" /><g class="legendlines"><path class="js-line" d="M5,0h60" style="fill: none; stroke: rgb(30, 144, 255); stroke-opacity: 1; stroke-dasharray: 5px, 5px; stroke-width: 5px;" /></g><g class="legendsymbols"><g class="legendpoints"><path class="scatterpts" transform="translate(35,0)" d="M6.5,0A6.5,6.5 0 1,1 0,-6.5A6.5,6.5 0 0,1 6.5,0Z" style="opacity: 1; stroke-width: 0px; fill: rgb(30, 144, 255); fill-opacity: 1;" /></g></g></g><rect class="legendtoggle" x="0" y="-23.6" width="302.5" height="47.2" style="fill: rgb(0, 0, 0); fill-opacity: 0;" /></g><g class="traces" transform="translate(305,123)" style="opacity: 1;"><text class="legendtext" text-anchor="start" x="70" y="13.26" style="font-family: Arial; font-size: 34px; fill: rgb(42, 63, 95); fill-opacity: 1; font-weight: 700; white-space: pre;">H200 FP32</text><g class="layers" style="opacity: 1;"><g class="legendfill" /><g class="legendlines"><path class="js-line" d="M5,0h60" style="fill: none; stroke: rgb(50, 205, 50); stroke-opacity: 1; stroke-dasharray: 5px, 5px; stroke-width: 5px;" /></g><g class="legendsymbols"><g class="legendpoints"><path class="scatterpts" transform="translate(35,0)" d="M6.5,0A6.5,6.5 0 1,1 0,-6.5A6.5,6.5 0 0,1 6.5,0Z" style="opacity: 1; stroke-width: 0px; fill: rgb(50, 205, 50); fill-opacity: 1;" /></g></g></g><rect class="legendtoggle" x="0" y="-23.6" width="302.5" height="47.2" style="fill: rgb(0, 0, 0); fill-opacity: 0;" /></g><g class="traces" transform="translate(610,123)" style="opacity: 1;"><text class="legendtext" text-anchor="start" x="70" y="13.26" style="font-family: Arial; font-size: 34px; fill: rgb(42, 63, 95); fill-opacity: 1; font-weight: 700; white-space: pre;">B300 FP32</text><g class="layers" style="opacity: 1;"><g class="legendfill" /><g class="legendlines"><path class="js-line" d="M5,0h60" style="fill: none; stroke: rgb(255, 0, 0); stroke-opacity: 1; stroke-dasharray: 5px, 5px; stroke-width: 5px;" /></g><g class="legendsymbols"><g class="legendpoints"><path class="scatterpts" transform="translate(35,0)" d="M6.5,0A6.5,6.5 0 1,1 0,-6.5A6.5,6.5 0 0,1 6.5,0Z" style="opacity: 1; stroke-width: 0px; fill: rgb(255, 0, 0); fill-opacity: 1;" /></g></g></g><rect class="legendtoggle" x="0" y="-23.6" width="302.5" height="47.2" style="fill: rgb(0, 0, 0); fill-opacity: 0;" /></g></g></g><rect class="scrollbar" rx="20" ry="3" width="0" height="0" style="fill: rgb(128, 139, 164); fill-opacity: 1;" x="0" y="0" /></g><g class="g-gtitle" /><g class="g-xtitle"><text class="xtitle" x="604" y="801.9" text-anchor="middle" style="opacity: 1; font-family: Arial; font-size: 32px; fill: rgb(42, 63, 95); fill-opacity: 1; font-weight: 700; white-space: pre;">Batch size</text></g><g class="g-ytitle" transform="translate(5.5751953125,0)"><text class="ytitle" transform="rotate(-90,23.424999999999997,467.5)" x="23.424999999999997" y="467.5" text-anchor="middle" style="opacity: 1; font-family: Arial; font-size: 32px; fill: rgb(42, 63, 95); fill-opacity: 1; font-weight: 700; white-space: pre;">RTFx</text></g></g></svg>